# xmcd
#
# Track frame offsets:
#	150
#	12575
#	25360
#	40618
#	55382
#	69568
#	87680
#	98960
#	109170
#	127476
#
# Disc length: 1912 seconds
#
# Revision: 1
# Processed by: cddbd v1.5.2PL0 Copyright (c) Steve Scherf et al.
# Submitted via: audiograbber 1.83.01
#
DISCID=9307760a
DTITLE=Pam Tillis - Above And Beyond The Doll Of Cutey
DYEAR=1983
DGENRE=Country
TTITLE0=Killer Comfort
TTITLE1=Love Is Sneakin' Up On You
TTITLE2=Make It Feel Better
TTITLE3=Wish I Was In Love Tonight
TTITLE4=You Don't Miss
TTITLE5=Never Be The Same
TTITLE6=(You Just Want To Be) Weird
TTITLE7=Popular Girl
TTITLE8=It Ain't Easy Bein' Easy
TTITLE9=Let's Get Crazy
EXTD=
EXTT0=
EXTT1=
EXTT2=
EXTT3=
EXTT4=
EXTT5=
EXTT6=
EXTT7=
EXTT8=
EXTT9=
PLAYORDER=
